<svg xmlns="http://www.w3.org/2000/svg" xml:space="preserve" viewBox="0 0 1816.8 1680.2">
	<path style="stroke: rgb(19, 35, 58); stroke-width: 1px; stroke-linejoin: round;" fill="rgb(255,255,255)" d="M1768 477c0-5 2-28-9-24 3-8 17-35 8-42-11-9-14-24-15-37-2-20 1-37 6-56 0-1 4-18 0-17-2 1-10 18-12 12a537 537 0 0 1-130 288 228 228 0 0 0-11-145l-14-30-12-27c-1-2-6-3-9-6-1-1-10-11-11-6-3-4-5-9-9-13-2-2-8-2-12-4l-26-26s3 8 1 7c49 58 86 137 73 215-5 26-14 51-29 73-7 12-16 23-25 34-7 9-23 14-33 19-57 26-116 27-177 31l-27 3c2-12 1-22 2-34 0-4 4-7 1-9s-4-7-8-7c2-7-7-7-9-13 0-1 2-6 0-5-5 2-5 7-6 12-4 19-8 38-19 54-3 5-5 9-10 10-8 3-17 5-25 9-18 7-36 17-51 29-6-36-15-71-20-107l-7-56-11-60c-7-37-7-73-4-110l2-26c1-7 1-7 8-9a982 982 0 0 0 71-20c-1-5 0-5 5-7l15-2 6-2c5-2-1-4 5-5l15-3c18-5 34-16 49-24-3-3 14-10 16-12l10-5c2-3 1-4 5-6 12-6 21-19 32-24-4 2 2 2 4 2 4 1 7-1 11-2l24-10c-2-5 6-1 6-5 5-1 9-2 13-5l9-6c8-2 15-10 22-15l13-10 12-9c4-2 9-1 10-5 1-3 7-8 4-11 7-2 5-3 7-8 1-4 4-6 7-8 3-1 8 1 9-1 2-2-4-2-3-3l-13 2c-10 2-20 5-29 9l-46 23 30-40c11-13 25-23 37-34-10-6 12-34-1-36l12-12c4-5 4-6 1-11-4-13 2-26 9-37 3-5 20-15 19-21 0-3-12 5-11 0-59 59-113 122-177 175 7-13 11-33 10-50 0-11-3-20-4-31 0-4 1-9-3-11-3-1-7-9-11-6-2-9-4-5-11-8l-5-5c-1-1-2-6-4-7-1-1-1 3-1 3-1 2 2 8 3 11 3 8 5 16 6 25 2 14 1 29-4 42-9 27-32 44-42 69l4-1c-2 2-7 6-6 10 1 2 6 0 8 2-30 17-61 32-93 42-33 11-65 22-95 40-3-7-10-20-20-13l2-36c0-5 2-20-4-24l-14-8c-6-4-11-10-14-16a145 145 0 0 1-20-71c0-13 3-26 5-38 1-8 5-19 2-27-4-12-17 28-21 16-7 63-12 126-15 189-6-6-26-27-34-13a463 463 0 0 0-24-51c-4-5-6-5-11-5-25 2-47-16-64-33-9-9-18-19-24-30l-19-38c-1-1-15-24-15-14 0 3 5 30-3 24 49 88 93 181 125 277l-60-36-1 3c-1 2-8-3-10-3l-22-14a117 117 0 0 0-18-8c-1 3-3 3-5 0l-26-12a356 356 0 0 0-121-27l-18-4h-16c-26-5-53-6-79-10a1932 1932 0 0 1-68-10c-4 0-3-1-5-5-10-22-39-34-61-43-2 6-12-8-15-4l-28-13-52-20-32-14c-11-5-22-8-31-14l-13-10c-4-3-3 0-7-1-2 0-14-4-14 0-3-2-6-6-10-7-3-1-9 2-12 1-6-1-11-4-15-8-1 0-8-8-9-7 0 1 4 7 2 6 63 56 141 92 219 125-27-5-53-6-79-12l-72-19c1 7-24 5-28 5-3 0-27 0-21 8-13-4-29-11-41-9l-4 2c-3 3-6 4-10 5a154 154 0 0 1-82-11c-5-2-17-9-22-7-2 1 18 13 11 13 82 30 169 48 253 68 76 19 152 37 229 52-14 2-29 8-43 12a702 702 0 0 0-73 31c-3 1-20 6-20 8 0 3-15 13-10 15-4 2-9 3-12 6l-1 6-6 7-12 9c-1 0-11 3-11 5 1 1 8-1 6 1 49-22 98-43 150-56 28-7 55-12 84-15 24-2 48-2 72-7a720 720 0 0 1 85 18 1294 1294 0 0 1 147 73l36 21 19 10 9 4c6 3 7 4 8 11 11 45 19 90 28 135l-12-11c-3-3-4-4-8-2a408 408 0 0 0-47-35c-1-13-16-22-25-29l-16-10c-3 4-7-4-10-5-1 2-12-6-14-7-6-2-10-2-15-5-10-6-24-9-35-12-14-4-29-6-41-12l-7-5c-1 2-3 3-5 3s-9 0-8 3c-1 0-8-4-9-3-2 3-4 4-7 5-4 0-8 0-11-2 0 0-7-5-7-3-1 1 3 4 1 4 31 18 65 31 97 46-5-1-18-5-21 0-9-1-19-3-28-2a655 655 0 0 0-174 30c-33 10-61 27-77 58-7 16-11 35-23 49a97 97 0 0 1-42 27c8 10-44 34-32 40-5 2-38 8-38 15 0 13-10 24-19 33-11 12-24 21-38 31-1 1-13 11-10 12 1 1 17-7 14-2 29-24 61-39 97-49 42-13 85-26 114-60 17-20 25-45 40-65 13-10 32-15 48-19l59-10c-20 12-39 24-57 38l-13 7c-4 2-7 2-8 6 0 3-8 11-4 13-2 1-10 4-9 6 1 3 0 7-2 10-2 2-16 14-17 13 1 0 6-1 5 1 44-23 88-49 134-68 21-8 44-14 65-24 6-2 7-3 14-2a307 307 0 0 1 45 9 210 210 0 0 1 144 128c9 24 19 49 26 74l3-14a1134 1134 0 0 1-36 305c-13 50-29 99-45 148-9 25-16 51-24 76-5 20-9 39-16 58l23-11-26 31c-4 5-19 20-14 27 6 9 25 7 34 7 6 0 7 5 11 8 4 5 11 2 16 0-12 9-24 18-38 25 1 4 17-7 18-8 2-2 21-18 22-14 2 5-20 18-24 21l-23 14c8 4 25-7 31-11 2-1 27-19 29-15-9 13-30 17-43 25-6 4-10 10 0 7 7-3 14-7 20-12-16 13-34 22-51 32-7 5-16 12-2 13 9 1 18 0 27-2-26 10-54 10-82 10 1 2 19 2 21 2l26-2c-14 3-29 4-44 2 12 9 29 7 43 5l-31 2c30 14 68 9 99-1 28-8 51-29 72-48 38-38 63-85 85-133 23 36 58 62 98 78-10-10-18-21-24-33 23 23 53 41 86 41 4-1 16-1 15-7-1-8-12-15-17-21-3-5-11-12-7-19 3-7 3-12-3-18 10 6 21 10 33 13 1-3-29-10-31-15-2-4 3-2 4-2 4 3 7 4 11 5 8 3 17 4 26 5-2-6-42-17-36-24 10 2 16 14 27 16 1 0 9-2 6-4-4-3-11-5-15-6 9 2 19 3 28-1 13-5 3-14-4-19 7 1 16 4 23-1l-13 1 12-2c-4-4-7-5-12-4l7-2c-6-5-11-11-14-17-2-3-3-8-7-9l-17-13c-11-11-17-27-22-41-10-33-13-67-16-101l-6 2c-4 1-5-8-5-10-1-11 0-21 1-31 2-10 2-20 0-30l-7-1a757 757 0 0 1 2-29c1-11 4-23 2-33l-3-32-8-74c-9 5-7-16-7-20l-1-35c0-4 1-13-3-15l-3-2-1-11c1-8 4-13 8-20 19-29 43-51 75-62 0-2-2-3-1-5 0-2 6-3 8-4h18l8-1c5 0 6 0 6-5l29 2c-1 1 3 2 3 2-3-1-14-1-6 4l-9-4 5 2-4-1c0 2 2 2 3 3-7-3 4 5 6 6 2 2 5 2 8 3l15 4 15 3 9 2c9 1 0-1 4-2 3 0 11 5 12 2 7 1 13 3 20 3a258 258 0 0 0 82-14l19-7c5-1 11-1 16-3-2-4 12-9 8-13l9-3c1-1 1-7 3-9 3-3 6-6 10-7 0 0 9-2 8-3 0-1-5-1-4-2-46 13-92 25-140 24 1-5 26-6 29-6 7-1 29-2 30-10 12-4 23-7 35-13 12-5 23-12 35-19 38-24 72-54 102-88l8-8c3-3 8-14 12-12l-2-1c4-9 12-16 17-24 11-14 18-30 26-45 16-31 37-59 51-91-9-1-5-25-5-30 0-15 0 14 0 0zm-400-185 2-1-2 1s1 0 0 0zm-902 12 2 2-2-2c1 0 0 0 0 0zm640 42c-3 1-4 2-6-1l6 1c-2 0-2 0 0 0zm239 491-5-3c1 0 6 1 5 3-1 0 1-1 0 0zm292-195-1-1 1 1zm34 20c2 0 2 1 4 3l-4-3z" />
</svg>